/vscmnt/brussel_pixiu_data/_data_brussel/112/vsc11236/PredSimResults/SUBJ04opt3D/weighted/trackIG/worker_04.mot
version=1
nRows=10
nColumns=50
inDegrees=yes
endheader
                time	         pelvis_tilt	         pelvis_list	     pelvis_rotation	           pelvis_tx	           pelvis_ty	           pelvis_tz	       hip_flexion_r	     hip_adduction_r	      hip_rotation_r	        knee_angle_r	       ankle_angle_r	         mtp_angle_r	       hip_flexion_l	     hip_adduction_l	      hip_rotation_l	        knee_angle_l	       ankle_angle_l	         mtp_angle_l	    lumbar_extension	      lumbar_bending	     lumbar_rotation	 ercspn_r/activation	 intobl_r/activation	 extobl_r/activation	    abd_r/activation	    add_r/activation	hamstrings_r/activation	bifemsh_r/activation	glut_max_r/activation	iliopsoas_r/activation	rect_fem_r/activation	  vasti_r/activation	gastroc_r/activation	 soleus_r/activation	tib_ant_r/activation	 ercspn_l/activation	 intobl_l/activation	 extobl_l/activation	    abd_l/activation	    add_l/activation	hamstrings_l/activation	bifemsh_l/activation	glut_max_l/activation	iliopsoas_l/activation	rect_fem_l/activation	  vasti_l/activation	gastroc_l/activation	 soleus_l/activation	tib_ant_l/activation	
          0.00000000	         -1.54640458	          0.33450860	          7.44140754	          0.00000000	          0.88295473	         -0.00923186	         28.36453365	         -2.44792081	         -7.54661187	        -10.22369030	          4.24979057	          0.23663289	        -12.42179105	         -0.01357941	         -6.33701271	         -6.80227995	         14.17315992	         18.41627193	        -13.98514817	         -4.00182364	         -8.35994706	          0.05425524	          0.23452914	          0.02022286	          0.00999999	          0.30426758	          0.06394948	          0.01813793	          0.01399306	          0.17720896	          0.03583058	          0.04523853	          0.00999999	          0.00999999	          0.34321388	          0.01462626	          0.00999999	          0.00999999	          0.07682447	          0.00999999	          0.03124188	          0.34350655	          0.01992318	          0.02697623	          0.00999999	          0.00999999	          0.29515853	          0.26683035	          0.01219540	
          0.01317245	         -1.64498973	          0.31990093	          7.21598810	          0.01526683	          0.88054758	         -0.00882508	         28.45589728	         -2.24320712	         -7.56135726	        -11.81557147	          4.08892604	          0.22798849	        -13.09646113	         -0.10868008	         -6.99109347	         -7.34324199	         14.05798799	         19.82247517	        -13.48114493	         -3.35637845	         -8.47530450	          0.04448825	          0.22781795	          0.01658236	          0.00999999	          0.33869500	          0.06829214	          0.01487275	          0.01147404	          0.14530794	          0.02938038	          0.03709472	          0.01487279	          0.02142282	          0.33994807	          0.02944639	          0.00999999	          0.00999999	          0.06299459	          0.00999999	          0.02561774	          0.31979989	          0.01633662	          0.02211999	          0.00999999	          0.00999999	          0.28672849	          0.27299439	          0.00999999	
          0.02634489	         -1.72764642	          0.24478589	          6.95434968	          0.03095587	          0.87827040	         -0.00838370	         28.42672096	         -2.02682292	         -7.45574880	        -13.36792387	          3.83508855	          0.22418881	        -13.70996756	         -0.27331898	         -7.68206062	         -8.07117668	         13.86776347	         21.31156195	        -12.93756369	         -2.61815989	         -8.56226564	          0.03647951	          0.21384636	          0.01359722	          0.01205558	          0.27772339	          0.07763717	          0.01219538	          0.03380940	          0.11914972	          0.02409135	          0.04592993	          0.01219540	          0.01756630	          0.36222217	          0.03250205	          0.00999999	          0.00999999	          0.05165435	          0.00999999	          0.02100606	          0.26739574	          0.01339572	          0.01813796	          0.00999999	          0.00999999	          0.26239442	          0.27151366	          0.00999999	
          0.03951734	         -1.79554513	          0.10313889	          6.64693793	          0.04690030	          0.87628399	         -0.00783825	         28.31531548	         -1.75754190	         -7.46491692	        -14.76089705	          3.41826968	          0.20790518	        -14.21131566	         -0.52065854	         -8.41992451	         -9.05236284	         13.57283250	         22.87568332	        -12.37739316	         -1.79030326	         -8.60903804	          0.02991250	          0.17534991	          0.01114946	          0.01717347	          0.22986816	          0.08360455	          0.01000000	          0.02772306	          0.09770048	          0.01975445	          0.12275816	          0.01000000	          0.01440403	          0.39207929	          0.03194986	          0.00999999	          0.00999999	          0.04235558	          0.00999999	          0.05516199	          0.21925937	          0.01119255	          0.01487278	          0.00999999	          0.00999999	          0.21515838	          0.26188860	          0.00999999	
          0.05268978	         -1.84896516	         -0.09659971	          6.30223559	          0.06299887	          0.87475096	         -0.00718273	         28.10317564	         -1.44465861	         -7.62988440	        -16.00476772	          3.05854834	          0.18699313	        -14.56192442	         -0.85218197	         -9.19795988	        -10.33830862	         13.12625972	         24.50798292	        -11.81760399	         -0.88802481	         -8.61639660	          0.02452767	          0.14378356	          0.00999999	          0.03829381	          0.20407772	          0.08496507	          0.01219539	          0.02273238	          0.08011252	          0.01619827	          0.19686822	          0.00999999	          0.01181103	          0.40962245	          0.04945374	          0.00999999	          0.00999999	          0.03473076	          0.00999999	          0.04952883	          0.17978848	          0.01310190	          0.01219540	          0.00999999	          0.00999999	          0.17642574	          0.24419788	          0.00999999	
          0.06586223	         -1.88868636	         -0.34340948	          5.92947299	          0.07914308	          0.87384695	         -0.00640975	         27.75437372	         -1.09293863	         -7.92430410	        -17.06628637	          2.90195092	          0.16348197	        -14.71845909	         -1.26925360	        -10.01189079	        -11.98197499	         12.46082173	         26.21363836	        -11.27316997	          0.06793944	         -8.58569480	          0.02593871	          0.11789976	          0.00999999	          0.07217610	          0.18438297	          0.08395927	          0.00999999	          0.01864011	          0.06569073	          0.01328227	          0.24396337	          0.00999999	          0.00999999	          0.41137666	          0.07645638	          0.00999999	          0.00999999	          0.02847856	          0.00999999	          0.06250546	          0.14742310	          0.01787605	          0.00999999	          0.00999999	          0.00999999	          0.14466572	          0.20023757	          0.00999999	
          0.07903467	         -1.91594994	         -0.62552147	          5.54000832	          0.09517603	          0.87371136	         -0.00551852	         27.27186155	         -0.70183745	         -8.27911696	        -17.94366496	          2.97646880	          0.14641677	        -14.62690516	         -1.77588731	        -10.85906925	        -14.05203279	         11.53533083	         27.96147536	        -10.76182730	          1.05740454	         -8.52151153	          0.02691405	          0.09667553	          0.00999999	          0.09473295	          0.17420570	          0.08596176	          0.01219537	          0.01528453	          0.05386514	          0.01089120	          0.25945416	          0.00999999	          0.00999999	          0.39680673	          0.08939385	          0.00999999	          0.00999999	          0.02335187	          0.03137245	          0.09447060	          0.12088411	          0.02211999	          0.00999999	          0.00999999	          0.00999999	          0.11862311	          0.16419096	          0.00999999	
          0.09220712	         -1.93173299	         -0.92342424	          5.14622846	          0.11096261	          0.87435991	         -0.00452052	         26.67405420	         -0.27849538	         -8.61681279	        -18.64860151	          3.25614725	          0.14937372	        -14.24706568	         -2.36887287	        -11.72997803	        -16.59325705	         10.31314835	         29.71345078	        -10.29827729	          2.05432160	         -8.42916696	          0.02853197	          0.07927208	          0.00999999	          0.11118583	          0.17789794	          0.08726996	          0.00999999	          0.01253302	          0.04416838	          0.00999999	          0.27712705	          0.00999999	          0.00999999	          0.36310668	          0.08284746	          0.00999999	          0.00999999	          0.01914808	          0.12803361	          0.10444339	          0.09912265	          0.01813796	          0.00999999	          0.00999999	          0.00999999	          0.09726867	          0.13463344	          0.00999999	
          0.10537956	         -1.93685795	         -1.20684699	          4.75706188	          0.12640057	          0.87573861	         -0.00343798	         25.95697563	          0.16181434	         -8.85893518	        -19.14806379	          3.67028038	          0.21424465	        -13.55763270	         -3.03210471	        -12.60652438	        -19.61647702	          8.77020753	         31.37157233	         -9.89454034	          3.02330245	         -8.31017097	          0.02745137	          0.06500158	          0.00999999	          0.11958468	          0.17566643	          0.09115569	          0.00999999	          0.01027684	          0.03621722	          0.00999999	          0.27519152	          0.00999999	          0.00999999	          0.32822983	          0.07484912	          0.00999999	          0.00999999	          0.01570106	          0.18294840	          0.12101033	          0.08127867	          0.01487278	          0.00999999	          0.00999999	          0.00999999	          0.07975844	          0.11039683	          0.00999999	
          0.11855201	         -1.93160303	         -1.44155288	          4.37695937	          0.14142874	          0.87773278	         -0.00229817	         25.11682811	          0.58583872	         -8.98564129	        -19.41076287	          4.09090148	          0.35235309	        -12.56273784	         -3.74166458	        -13.47553022	        -23.08800438	          6.91078801	         32.75472066	         -9.55769136	          3.92508000	         -8.16199688	          0.02697622	          0.05330005	          0.00999999	          0.12376570	          0.17163115	          0.09347911	          0.00999999	          0.01255218	          0.02969743	          0.00999999	          0.26302320	          0.00999999	          0.00999999	          0.29525254	          0.06762750	          0.01000003	          0.00999999	          0.01287457	          0.20281582	          0.10823214	          0.06664695	          0.01219540	          0.00999999	          0.00999999	          0.00999999	          0.06540039	          0.09052328	          0.00999999	
